#N canvas 100 100 536 434 10;
#X obj 18 20 cnv 18 500 400 empty empty OSCILLA\ OSC\ ROUTING\ EXAMPLE 20 12 0 25 #c6ffc7 #404040 0;
#X obj 40 69 netreceive -u -b 57120;
#X obj 40 90 oscparse;
#X obj 41 112 list trim;
#X symbolatom 275 259 5 0 0 3 score\ time - - 36;
#X obj 273 233 symbol;
#X obj 93 262 select 1 2 3 4;
#X obj 56 305 bng 40 250 50 0 empty empty cue\ 1 0 -9 0 12 #faff00 #000000 #000000;
#X obj 102 305 bng 40 250 50 0 empty empty cue\ 2 0 -9 0 12 #ffe3c6 #000000 #000000;
#X obj 148 305 bng 40 250 50 0 empty empty cue\ 3 0 -9 0 12 #00ff04 #000000 #000000;
#X obj 193 305 bng 40 250 50 0 empty empty cue\ 4 0 -9 0 12 #e3c6ff #000000 #000000;
#X obj 41 136 route rotate cue stopwatch;
#X text 38 44 Rob Canning 2025;
#X obj 93 173 route trigger;
#X obj 326 163 print;
#X connect 1 0 2 0;
#X connect 2 0 3 0;
#X connect 3 0 11 0;
#X connect 3 0 14 0;
#X connect 5 0 4 0;
#X connect 6 0 7 0;
#X connect 6 1 8 0;
#X connect 6 2 9 0;
#X connect 6 3 10 0;
#X connect 11 1 13 0;
#X connect 11 2 5 0;
#X connect 13 0 6 0;
